# xmcd
# 
# Track frame offsets:
#	150
#	20710
#	39212
#	58355
#	74188
#	93075
#	114307
#	131680
#	149652
#	164088
#	185652
#	204069
#	221367
#	243545
#
# Disc length: 3554 seconds
#
# Revision: 1
# Processed by: cddbd v1.4PL0 Copyright (c) Steve Scherf et al.
# Submitted via: Audio-CD-Archiv 2.10.441
#
DISCID=d80de00e
DTITLE=Visky - Sitting On My Tomb
DYEAR=1900
DGENRE=blues
TTITLE0=Losing Ground
TTITLE1=Woman In My Dream
TTITLE2=Pounding At My Door
TTITLE3=Money-Honey
TTITLE4=Sitting On My Tomb
TTITLE5=Time Of Broken Hearts
TTITLE6=Get The Picture
TTITLE7=Reach For The Skies
TTITLE8=More Than All
TTITLE9=Together Here With You
TTITLE10=Wall Of Fire
TTITLE11=I Know The Blues
TTITLE12=Secret Man
TTITLE13=You And Me
EXTD=
EXTT0=
EXTT1=
EXTT2=
EXTT3=
EXTT4=
EXTT5=
EXTT6=
EXTT7=
EXTT8=
EXTT9=
EXTT10=
EXTT11=
EXTT12=
EXTT13=
PLAYORDER=
